<svg id="call" xmlns="http://www.w3.org/2000/svg" width="16.432" height="16.432" viewBox="0 0 16.432 16.432">
  <path id="Path_127" data-name="Path 127" d="M15.134,10.819a9.386,9.386,0,0,1-2.947-.469,1.264,1.264,0,0,0-1.283.272L9.038,12.03A10.423,10.423,0,0,1,4.4,7.393L5.772,5.572a1.309,1.309,0,0,0,.321-1.323A9.4,9.4,0,0,1,5.621,1.3,1.3,1.3,0,0,0,4.324,0H1.3A1.3,1.3,0,0,0,0,1.3,15.152,15.152,0,0,0,15.134,16.432a1.3,1.3,0,0,0,1.3-1.3V12.116A1.3,1.3,0,0,0,15.134,10.819Z" fill="#f78739"/>
  <g id="Group_1242" data-name="Group 1242" transform="translate(9.513)">
    <path id="Path_128" data-name="Path 128" d="M241.152,6.919a.432.432,0,0,1-.432-.432A5.628,5.628,0,0,0,235.1.865a.432.432,0,0,1,0-.865,6.493,6.493,0,0,1,6.486,6.486A.432.432,0,0,1,241.152,6.919Z" transform="translate(-234.666)" fill="#f78739"/>
    <path id="Path_129" data-name="Path 129" d="M237.693,88.792a.432.432,0,0,1-.432-.432A2.162,2.162,0,0,0,235.1,86.2a.432.432,0,1,1,0-.865,3.027,3.027,0,0,1,3.027,3.027A.432.432,0,0,1,237.693,88.792Z" transform="translate(-234.666 -81.874)" fill="#f78739"/>
  </g>
</svg>
