<svg xmlns="http://www.w3.org/2000/svg" width="204.353" height="204.213" viewBox="0 0 204.353 204.213">
  <path id="Intersection_1" data-name="Intersection 1" d="M74.068,153.961a75.326,75.326,0,0,1-10.078-1H89.009a75.326,75.326,0,0,1-10.078,1Zm-31.968-8.3q-.942-.487-1.87-1h72.54q-.926.513-1.87,1Zm-13.474-8.928q-.6-.494-1.18-1h98.108q-.585.506-1.18,1ZM18,125.942q-.4-.5-.79-1H135.787q-.391.5-.79,1Zm-6.749-9.929c-.189-.332-.374-.664-.558-1H142.3c-.184.335-.369.668-.558,1ZM6.211,105.221c-.124-.331-.246-.668-.365-1H147.154c-.119.333-.242.67-.365,1ZM3.275,95.293c-.073-.332-.145-.667-.214-1H149.94c-.069.333-.141.669-.214,1ZM1.7,84.5c-.024-.335-.046-.664-.066-1H151.367c-.02.336-.042.666-.066,1Zm-.07-9.929q.029-.5.065-1h149.4v1ZM3.046,63.778c.069-.334.14-.669.213-1H149.74c.073.332.145.667.213,1Zm2.775-9.929c.119-.333.241-.669.364-1H146.814c.123.331.245.666.364,1Zm4.84-10.8c.183-.334.367-.664.554-.994H141.784c.187.33.372.661.554.994Zm6.5-9.928q.388-.5.783-.994h117.1q.4.494.783.994ZM27.373,22.328q.584-.507,1.178-1h95.9q.595.5,1.178,1Zm12.293-8.675q.906-.512,1.829-1h70.011q.922.487,1.829,1ZM60.973,5.609q2.926-.616,5.929-1H86.1q3.005.384,5.929,1Z" transform="translate(-3.715 71.693) rotate(-30)" fill="#d24d00"/>
</svg>
