<svg id="clock" xmlns="http://www.w3.org/2000/svg" width="22" height="22" viewBox="0 0 22 22">
  <path id="clock-2" data-name="clock" d="M26-77a10.928,10.928,0,0,1-7.778-3.222A10.928,10.928,0,0,1,15-88a10.928,10.928,0,0,1,3.222-7.778A10.928,10.928,0,0,1,26-99a10.928,10.928,0,0,1,7.778,3.222A10.928,10.928,0,0,1,37-88a10.928,10.928,0,0,1-3.222,7.778A10.928,10.928,0,0,1,26-77Zm0-18a.5.5,0,0,0-.5.5v8a.5.5,0,0,0,.5.5h5a.5.5,0,0,0,.5-.5A.5.5,0,0,0,31-87H26.5v-7.5A.5.5,0,0,0,26-95Z" transform="translate(-15 99)" fill="#f78739"/>
</svg>
