<svg xmlns="http://www.w3.org/2000/svg" width="45.576" height="46.144" viewBox="0 0 45.576 46.144">
  <g id="contacts" transform="translate(0 0)">
    <g id="Group_629" data-name="Group 629" transform="translate(0 0)">
      <g id="Group_628" data-name="Group 628" transform="translate(0 0)">
        <path id="Path_243" data-name="Path 243" d="M16.666,26.678a13.37,13.37,0,0,0,6.057-1.542.029.029,0,0,1,.026,0,8.657,8.657,0,0,0,4.382.961,1.1,1.1,0,0,0,.71-1.784A10.9,10.9,0,0,1,26.5,22.182a.033.033,0,0,1,.009-.031,13.326,13.326,0,0,0,.334-17.22.676.676,0,1,0-1.049.853,11.974,11.974,0,0,1-.3,15.472,1.379,1.379,0,0,0-.213,1.511,12.418,12.418,0,0,0,1.216,2.012,8.506,8.506,0,0,1-3.167-.87,1.387,1.387,0,0,0-1.236.029A11.89,11.89,0,0,1,8.159,21.891,11.96,11.96,0,0,1,23.628,3.715a.676.676,0,1,0,.807-1.085A13.309,13.309,0,0,0,7.216,22.86,13.24,13.24,0,0,0,16.5,26.679Z" transform="translate(-3.151 0)" fill="#fff"/>
        <path id="Path_244" data-name="Path 244" d="M197.343,123.794a2.389,2.389,0,1,0,2.389-2.389A2.392,2.392,0,0,0,197.343,123.794Zm3.427,0a1.037,1.037,0,1,1-1.037-1.037A1.038,1.038,0,0,1,200.77,123.794Z" transform="translate(-179.838 -110.461)" fill="#fff"/>
        <path id="Path_245" data-name="Path 245" d="M124.623,123.794a2.389,2.389,0,1,0,2.389-2.389A2.392,2.392,0,0,0,124.623,123.794Zm3.427,0a1.037,1.037,0,1,1-1.037-1.037A1.038,1.038,0,0,1,128.05,123.794Z" transform="translate(-113.673 -110.461)" fill="#fff"/>
        <path id="Path_246" data-name="Path 246" d="M51.9,123.794a2.389,2.389,0,1,0,2.389-2.389A2.392,2.392,0,0,0,51.9,123.794Zm3.427,0a1.037,1.037,0,1,1-1.037-1.037A1.038,1.038,0,0,1,55.331,123.794Z" transform="translate(-47.509 -110.461)" fill="#fff"/>
        <path id="Path_247" data-name="Path 247" d="M156.625,38.873a.677.677,0,0,0-.744.6,25.821,25.821,0,0,1-.978,4.662,40.072,40.072,0,0,1-9,16.195,34.853,34.853,0,0,1-3.65,3.352q-.669.532-1.364,1.03-1.433,1.029-2.96,1.918a12.119,12.119,0,0,1-7.843,1.764q-.562-.1-1.085-.252c1.509-1.127,2.839-2.274,4.3-3.591,1.662-1.5,3.117-2.891,4.448-4.251l.005-.006.006-.006.785-.842a43.216,43.216,0,0,0,10.868-16.81l.425-1.213c1.227-3.548,2.353-7.313,3.355-11.207a9.922,9.922,0,0,1,2,3.072,10.074,10.074,0,0,1,.667,2.5A.676.676,0,1,0,157.2,35.6a11.426,11.426,0,0,0-.759-2.834q-.134-.321-.287-.634a12.125,12.125,0,0,0-3.913-4.461c-1.626-1.2-3.778-2.122-5.765-1.251a4.015,4.015,0,0,0-1.644,1.346,5.163,5.163,0,0,0-.678,1.287c-.04.108-1.372,4.325-1.872,6.406a3.4,3.4,0,0,0,1.013,3.732,5.7,5.7,0,0,0,1.138.738c.957.485,1.955.9,2.953,1.3l.41.166.55.208-.2.584a41.873,41.873,0,0,1-10.542,16.3l-.027.027-.332.356-.707-.7a28.935,28.935,0,0,0-2.233-2.18c-1.808-1.422-3.338-1.455-5.116-.111a50.412,50.412,0,0,0-5.3,4.5c-2,2.008-1.971,4.115.08,6.264a10.066,10.066,0,0,0,2.414,1.863l0,0a10.282,10.282,0,0,0,.928.456l.04.015a11.668,11.668,0,0,0,2.507.741,9.54,9.54,0,0,0,1.7.147,14.361,14.361,0,0,0,7.067-2.073q1.593-.927,3.092-2,.753-.542,1.479-1.122a37.149,37.149,0,0,0,8.289-9.434q.69-1.116,1.3-2.277a46.871,46.871,0,0,0,3.422-8.437,27.165,27.165,0,0,0,1.028-4.908.676.676,0,0,0-.6-.743ZM148.3,40.135c-.879-.343-1.734-.692-2.586-1.088a6.6,6.6,0,0,1-1.538-.883,2.1,2.1,0,0,1-.576-2.387c.473-1.966,1.754-6.037,1.829-6.262a3.821,3.821,0,0,1,.5-.949,2.686,2.686,0,0,1,1.095-.905c1.743-.764,3.687.5,5.024,1.519l.02.016c-.975,3.861-2.075,7.6-3.273,11.129l-.492-.189ZM126.988,67.3v.005a8.723,8.723,0,0,1-2.046-1.6c-1.549-1.623-1.578-2.891-.1-4.377A48.388,48.388,0,0,1,130,56.96c1.275-.963,2.149-.939,3.465.1.678.533,2.839,2.788,2.839,2.788-1.18,1.185-2.463,2.4-3.906,3.7a54.14,54.14,0,0,1-4.9,4.023C127.323,67.489,127.154,67.4,126.988,67.3Z" transform="translate(-111.654 -23.728)" fill="#fff"/>
      </g>
    </g>
  </g>
</svg>
