<svg id="date_time" xmlns="http://www.w3.org/2000/svg" width="22.75" height="21.651" viewBox="0 0 22.75 21.651">
  <path id="Path_394" data-name="Path 394" d="M343.606,30.227a.542.542,0,0,0,0-1.083,1.264,1.264,0,1,1,.65-2.347h1.431a2.347,2.347,0,1,0-2.081,3.431Z" transform="translate(-326.092 -25.533)" fill="#f78739"/>
  <path id="Path_395" data-name="Path 395" d="M222.548,30.227a.542.542,0,0,0,0-1.083,1.264,1.264,0,1,1,.65-2.347h1.431a2.347,2.347,0,1,0-2.081,3.431Z" transform="translate(-210.498 -25.533)" fill="#f78739"/>
  <path id="Path_396" data-name="Path 396" d="M69.844,66.191a.542.542,0,0,0-.526-.669H65.952a.721.721,0,0,0,.476,1.264,1.083,1.083,0,0,1,0,2.167,2.887,2.887,0,0,1-2.837-3.431h-3.1a.721.721,0,0,0,.476,1.264,1.083,1.083,0,0,1,0,2.167,2.887,2.887,0,0,1-2.837-3.431h-3.1a.721.721,0,0,0,.476,1.264,1.083,1.083,0,0,1,0,2.167,2.887,2.887,0,0,1-2.837-3.431h-.318a.542.542,0,0,0-.527.414L50.978,69.4H69.065Z" transform="translate(-48.914 -63.717)" fill="#f78739"/>
  <path id="Path_397" data-name="Path 397" d="M101.5,30.225a.542.542,0,0,0,0-1.083,1.264,1.264,0,1,1,.65-2.347h1.431a2.347,2.347,0,1,0-2.081,3.431Z" transform="translate(-94.911 -25.531)" fill="#f78739"/>
  <path id="Path_398" data-name="Path 398" d="M434.2,137.5v-7.613l-1.658,6.839A5.4,5.4,0,0,1,434.2,137.5Z" transform="translate(-413.25 -125.179)" fill="#f78739"/>
  <path id="Path_399" data-name="Path 399" d="M23.125,168.649a5.429,5.429,0,0,1,.894.074l1.262-5.2H7.194l-1.917,7.907a.542.542,0,0,0,.526.669H18.08A5.426,5.426,0,0,1,23.125,168.649Zm-2.7-3.6h1.444a.542.542,0,1,1,0,1.083H20.429a.542.542,0,1,1,0-1.083ZM9.957,170.47H8.512a.542.542,0,0,1,0-1.083H9.957a.542.542,0,1,1,0,1.083Zm.361-2.167H8.873a.542.542,0,1,1,0-1.083h1.444a.542.542,0,1,1,0,1.083Zm.722-2.167H9.6a.542.542,0,1,1,0-1.083H11.04a.542.542,0,1,1,0,1.083Zm2.528,4.333H12.123a.542.542,0,1,1,0-1.083h1.444a.542.542,0,1,1,0,1.083Zm.361-2.167H12.484a.542.542,0,1,1,0-1.083h1.444a.542.542,0,1,1,0,1.083Zm.722-2.167H13.207a.542.542,0,1,1,0-1.083h1.444a.542.542,0,1,1,0,1.083Zm2.528,4.333H15.734a.542.542,0,1,1,0-1.083h1.444a.542.542,0,0,1,0,1.083Zm.361-2.167H16.1a.542.542,0,1,1,0-1.083H17.54a.542.542,0,1,1,0,1.083Zm.722-2.167H16.818a.542.542,0,1,1,0-1.083h1.444a.542.542,0,1,1,0,1.083Zm1.444,1.083h1.444a.542.542,0,0,1,0,1.083H19.707a.542.542,0,0,1,0-1.083Z" transform="translate(-5.262 -157.29)" fill="#f78739"/>
  <path id="Path_400" data-name="Path 400" d="M69.265,365.521v1.444a.542.542,0,0,0,.542.542h9.044a5.432,5.432,0,0,1,.163-1.986Z" transform="translate(-66.375 -350.174)" fill="#f78739"/>
  <path id="Path_401" data-name="Path 401" d="M478.9,65.522h-.868a1.076,1.076,0,0,1,.146.542V76.469a5.448,5.448,0,0,1,1.264,1.688V66.064A.542.542,0,0,0,478.9,65.522Z" transform="translate(-456.696 -63.717)" fill="#f78739"/>
  <path id="Path_402" data-name="Path 402" d="M297.875,289.174a4.875,4.875,0,1,0,4.875,4.875A4.875,4.875,0,0,0,297.875,289.174Zm.542,8.627v-.5a.542.542,0,1,0-1.083,0v.5a3.8,3.8,0,0,1-3.211-3.211h.5a.542.542,0,1,0,0-1.083h-.5a3.8,3.8,0,0,1,3.211-3.211v.5a.542.542,0,1,0,1.083,0v-.5a3.8,3.8,0,0,1,3.211,3.211h-.5a.542.542,0,0,0,0,1.083h.5A3.8,3.8,0,0,1,298.417,297.8Z" transform="translate(-280.012 -277.273)" fill="#f78739"/>
  <path id="Path_403" data-name="Path 403" d="M360.045,353.332l-1.168,1.168-1.1-.548a.542.542,0,1,0-.484.969l1.444.722a.542.542,0,0,0,.625-.1l1.444-1.444a.542.542,0,0,0-.766-.766Z" transform="translate(-341.12 -338.384)" fill="#f78739"/>
</svg>
