<svg xmlns="http://www.w3.org/2000/svg" width="11.597" height="20.771" viewBox="0 0 11.597 20.771">
  <path id="doller" d="M12.2,1.488A4,4,0,0,1,11.03,4.4,5.844,5.844,0,0,1,8.047,6V7.388A1.341,1.341,0,0,1,6.679,8.756a1.261,1.261,0,0,1-.942-.393,1.345,1.345,0,0,1-.381-.976V6.131a7.777,7.777,0,0,1-2.209-.516A7.066,7.066,0,0,1,1.206,4.4,1.575,1.575,0,0,1,.6,3.215a1.265,1.265,0,0,1,.381-.908,1.236,1.236,0,0,1,.92-.393,1.188,1.188,0,0,1,.763.269,8.005,8.005,0,0,0,1.323.886,4.38,4.38,0,0,0,1.368.437V-.867Q.847-1.7.847-5.376A4.05,4.05,0,0,1,2.1-8.437,5.659,5.659,0,0,1,5.355-9.907v-.74a1.325,1.325,0,0,1,.393-.976,1.325,1.325,0,0,1,.976-.393,1.261,1.261,0,0,1,.942.393,1.345,1.345,0,0,1,.381.976v.83a6.452,6.452,0,0,1,3.14,1.391,1.5,1.5,0,0,1,.65,1.189,1.265,1.265,0,0,1-.381.908,1.211,1.211,0,0,1-.9.393.984.984,0,0,1-.606-.2A5.8,5.8,0,0,0,8.047-7.1v4.15A6.506,6.506,0,0,1,11.21-1.439,4,4,0,0,1,12.2,1.488Zm-8.7-6.976a1.6,1.6,0,0,0,.471,1.2,3.285,3.285,0,0,0,1.391.729V-7.282a2.631,2.631,0,0,0-1.391.65A1.557,1.557,0,0,0,3.494-5.488ZM8.047,3.305A2.935,2.935,0,0,0,9.1,2.6a1.38,1.38,0,0,0,.4-.953A1.716,1.716,0,0,0,9.146.557a2.691,2.691,0,0,0-1.1-.774Z" transform="translate(-0.6 12.015)" fill="#f78739"/>
</svg>
