<svg id="email" xmlns="http://www.w3.org/2000/svg" width="18.971" height="16.583" viewBox="0 0 18.971 16.583">
  <path id="Path_130" data-name="Path 130" d="M431.665,124.258v3.458l2.421-1.729Z" transform="translate(-415.671 -120.848)" fill="#f78739"/>
  <path id="Path_131" data-name="Path 131" d="M17.421,127.716v-3.458L15,125.987Z" transform="translate(-14.444 -120.848)" fill="#f78739"/>
  <path id="Path_132" data-name="Path 132" d="M121.128,32.218H110.333V39.88l3.611,2.58,1.786-1.276,1.786,1.276,3.611-2.58Zm-9.224,1.44h3.827v1.112H111.9Zm7.654,6.214H111.9V38.76h7.654ZM111.9,37.321V36.209h7.654v1.112Z" transform="translate(-106.245 -32.218)" fill="#f78739"/>
  <path id="Path_133" data-name="Path 133" d="M330.006,201.893l6.743,4.817v-9.633Z" transform="translate(-317.779 -190.968)" fill="#f78739"/>
  <path id="Path_134" data-name="Path 134" d="M28.558,311.075l-8.751,6.251h17.5Z" transform="translate(-19.073 -300.743)" fill="#f78739"/>
  <path id="Path_135" data-name="Path 135" d="M6.743,201.893,0,197.076v9.633Z" transform="translate(0 -190.968)" fill="#f78739"/>
</svg>
