<svg xmlns="http://www.w3.org/2000/svg" width="56.186" height="43.326" viewBox="0 0 56.186 43.326">
  <g id="email" transform="translate(0 0)">
    <path id="Path_237" data-name="Path 237" d="M50.693,25.843V9.6A2.711,2.711,0,0,0,47.884,7H4.809A2.711,2.711,0,0,0,2,9.6v26a2.711,2.711,0,0,0,2.809,2.6H30.14C30.589,44.441,35.785,49.5,42.5,50.236s13.043-3.069,15.05-9.046-.876-12.428-6.859-15.347ZM4.809,8.733H47.884a.9.9,0,0,1,.936.867v2.055L28.373,20.738a5.008,5.008,0,0,1-4.053,0L3.873,11.654V9.6a.9.9,0,0,1,.936-.867ZM3.873,35.6V13.576L23.51,22.3a7,7,0,0,0,5.673,0L48.82,13.576V25.09a14.961,14.961,0,0,0-12.407,1.373,12.8,12.8,0,0,0-6.273,10H4.809a.9.9,0,0,1-.936-.867Zm40.265,13c-6.723,0-12.173-5.044-12.173-11.265s5.45-11.265,12.173-11.265S56.312,31.108,56.312,37.33,50.858,48.588,44.138,48.6Z" transform="translate(-2 -7)" fill="#fff"/>
    <path id="Path_238" data-name="Path 238" d="M10,47h1.992v1.992H10Z" transform="translate(-2.03 -13.633)" fill="#fff"/>
    <path id="Path_239" data-name="Path 239" d="M14,47h9.962v1.992H14Z" transform="translate(-2.906 -13.633)" fill="#fff"/>
    <path id="Path_240" data-name="Path 240" d="M7.992,35.992V34H6v1.992a2.989,2.989,0,0,0,2.989,2.989h1.992V36.989H8.989A1,1,0,0,1,7.992,35.992Z" transform="translate(-2.015 -10.991)" fill="#fff"/>
    <path id="Path_241" data-name="Path 241" d="M6,30H7.992v1.992H6Z" transform="translate(-2.015 -10.193)" fill="#fff"/>
    <path id="Path_242" data-name="Path 242" d="M53.943,39H40a1,1,0,0,0-1,1v3.985a1,1,0,0,0,1,1H53.943a1,1,0,0,0,1-1V40A1,1,0,0,0,53.943,39Zm-1,3.985H40.992V40.992H52.947Z" transform="translate(-5.728 -11.835)" fill="#fff"/>
  </g>
</svg>
