<svg id="experience_icon" xmlns="http://www.w3.org/2000/svg" width="21.465" height="21.839" viewBox="0 0 21.465 21.839">
  <path id="Path_222" data-name="Path 222" d="M139.5,17.516l.917,1.858a.92.92,0,0,0,.693.5l2.05.3a.92.92,0,0,1,.51,1.57l-1.484,1.446a.92.92,0,0,0-.265.814l.35,2.042a.92.92,0,0,1-1.335.97l-1.834-.964a.92.92,0,0,0-.856,0l-1.834.964a.92.92,0,0,1-1.335-.97l.35-2.042a.92.92,0,0,0-.265-.814l-1.484-1.446a.92.92,0,0,1,.51-1.57l2.05-.3a.92.92,0,0,0,.693-.5l.917-1.858a.92.92,0,0,1,1.65,0Zm0,0" transform="translate(-127.957 -16.229)" fill="#f78739"/>
  <g id="star" transform="translate(0.004 0.039)">
    <path id="Path_207" data-name="Path 207" d="M285.1,159.727a1,1,0,0,1,.99,1.01l-.068,5.722a2.39,2.39,0,0,1-.6,1.559l-3.833,4.323a1.2,1.2,0,0,0-.3.807l.014,1.475h-4.225l-.782-4.281a3.037,3.037,0,0,1,.716-2.589l.079-.083,3.623-3.711a.836.836,0,1,1,1.218,1.146l-2.182,2.4a.775.775,0,0,0,1.145,1.046l2.525-2.746a1.469,1.469,0,0,0,.383-.888l.3-4.266a1,1,0,0,1,1-.928h.007Zm0,0" transform="translate(-264.629 -152.824)" fill="#f78739"/>
    <path id="Path_209" data-name="Path 209" d="M16.689,167.753a3.038,3.038,0,0,1,.716,2.589l-.781,4.282H12.4l.014-1.475a1.2,1.2,0,0,0-.3-.807L8.28,168.019a2.4,2.4,0,0,1-.6-1.559l-.08-5.723a1,1,0,0,1,.99-1.01H8.6a1,1,0,0,1,1,.928l.3,4.266a1.467,1.467,0,0,0,.383.888l2.524,2.746a.775.775,0,1,0,1.145-1.046L11.769,165.1a.836.836,0,0,1,1.218-1.146l3.623,3.711.079.083Zm0,0" transform="translate(-7.604 -152.824)" fill="#f78739"/>
    <path id="Subtraction_10" data-name="Subtraction 10" d="M2.409,10.079a.912.912,0,0,1-.429-.108L.146,9.007A.924.924,0,0,0,0,8.945V0A.907.907,0,0,1,.543.47L1.46,2.328a.919.919,0,0,0,.693.5l2.051.3a.92.92,0,0,1,.51,1.57L3.229,6.145a.919.919,0,0,0-.264.814L3.315,9a.9.9,0,0,1-.2.745A.924.924,0,0,1,2.409,10.079Z" transform="translate(10.993 0.778)" fill="#f78739"/>
    <path id="Path_216" data-name="Path 216" d="M375.77,2.487a.328.328,0,0,0,.431-.174L376.99.461a.329.329,0,0,0-.6-.258l-.79,1.853a.329.329,0,0,0,.17.431Zm0,0" transform="translate(-359.666 -0.003)" fill="#f78739"/>
    <path id="Path_217" data-name="Path 217" d="M409.042,63.206a.329.329,0,0,0,.414.211l2.016-.657a.329.329,0,0,0-.2-.625l-2.016.657a.329.329,0,0,0-.214.414Zm0,0" transform="translate(-391.676 -59.434)" fill="#f78739"/>
    <path id="Path_218" data-name="Path 218" d="M401.355,129.053a.329.329,0,1,0-.22.62l1.358.482a.329.329,0,1,0,.22-.62Zm0,0" transform="translate(-383.917 -123.457)" fill="#f78739"/>
    <path id="Path_219" data-name="Path 219" d="M102.643,2.31a.329.329,0,0,0,.6-.258L102.459.2a.329.329,0,1,0-.6.257Zm0,0" transform="translate(-97.756)" fill="#f78739"/>
    <path id="Path_220" data-name="Path 220" d="M40.208,62.761l2.016.657a.329.329,0,0,0,.2-.625l-2.016-.657a.329.329,0,0,0-.2.625Zm0,0" transform="translate(-38.582 -59.435)" fill="#f78739"/>
    <path id="Path_221" data-name="Path 221" d="M64.877,129.053l-1.358.482a.329.329,0,1,0,.22.62l1.358-.482a.329.329,0,1,0-.22-.62Zm0,0" transform="translate(-60.892 -123.457)" fill="#f78739"/>
  </g>
</svg>
