<svg xmlns="http://www.w3.org/2000/svg" width="19.046" height="18" viewBox="0 0 19.046 18">
  <g id="export" transform="translate(-19.995 792.643)">
    <path id="Path_639" data-name="Path 639" d="M205.527-792.637l-.179.036a1.194,1.194,0,0,0-.77.592l-.076.157-.007,1.708-.007,1.71-.267.014a5.6,5.6,0,0,0-2.292.572,5.286,5.286,0,0,0-2.287,2.185,11.237,11.237,0,0,0-1.35,3.924,17.733,17.733,0,0,0-.165,2.478l.007.353.165-.246a8.653,8.653,0,0,1,4.768-3.769,7.8,7.8,0,0,1,1.143-.179l.279-.017.007,1.715.007,1.715.064.138a1.247,1.247,0,0,0,.472.491,1.153,1.153,0,0,0,.644.153,1.153,1.153,0,0,0,.7-.193c.072-.048.434-.406.806-.792,1-1.038,2.733-2.8,4.327-4.408.835-.842,1.407-1.436,1.407-1.462a4.086,4.086,0,0,0-.465-.515c-.482-.489-.72-.735-2.2-2.249-2.333-2.395-3.626-3.719-3.726-3.809a1.158,1.158,0,0,0-.463-.253A1.884,1.884,0,0,0,205.527-792.637Z" transform="translate(-173.88)" fill="#f78739"/>
    <path id="Path_640" data-name="Path 640" d="M20.818-748.967a1.173,1.173,0,0,0-.687.515c-.146.25-.136-.332-.136,7.919s-.01,7.654.136,7.924a1.485,1.485,0,0,0,.458.446c.246.126-.155.122,7.862.122,5.021,0,7.492-.01,7.6-.026a1.08,1.08,0,0,0,.906-.93c.033-.258.031-6.485,0-6.485-.014,0-.327.308-.7.685s-.84.859-1.047,1.069l-.377.384v3.182H22.118v-12.689h7.418V-749l-4.3,0C21.9-749,20.911-748.99,20.818-748.967Z" transform="translate(0 -42.602)" fill="#f78739"/>
  </g>
</svg>
