<svg id="facebook" xmlns="http://www.w3.org/2000/svg" width="27.539" height="27.539" viewBox="0 0 27.539 27.539">
  <path id="Path_7" data-name="Path 7" d="M27.539,13.77A13.77,13.77,0,1,1,13.77,0,13.769,13.769,0,0,1,27.539,13.77Zm0,0" fill="#4a7aff"/>
  <path id="Path_8" data-name="Path 8" d="M150.876,98.787a13.769,13.769,0,0,0,13.165-13.755c0-.054,0-.107,0-.161l-9.558-9.558-10.22,10.682,5.678,5.678-2.618,3.56Zm0,0" transform="translate(-136.502 -71.262)" fill="#0053bf"/>
  <path id="Path_9" data-name="Path 9" d="M154.478,71.357v3.118s-3.58-.52-3.58,1.79v2.309h3.233l-.4,3.522H150.9v9.18h-3.58V82.1l-3.06-.058V78.575h3V75.919a4.534,4.534,0,0,1,3.7-4.677A10.4,10.4,0,0,1,154.478,71.357Zm0,0" transform="translate(-136.499 -67.306)" fill="#fff"/>
  <path id="Path_10" data-name="Path 10" d="M259.873,74.475V71.357a10.4,10.4,0,0,0-3.522-.115,5.46,5.46,0,0,0-.707.18V91.277h.649V82.1h2.829l.4-3.522h-3.233V76.265C256.294,73.955,259.873,74.475,259.873,74.475Zm0,0" transform="translate(-241.894 -67.306)" fill="#dce1eb"/>
</svg>
