<svg id="facebook" xmlns="http://www.w3.org/2000/svg" width="45" height="45" viewBox="0 0 45 45">
  <path id="Path_7" data-name="Path 7" d="M45,22.5A22.5,22.5,0,1,1,22.5,0,22.5,22.5,0,0,1,45,22.5Zm0,0" fill="#4a7aff"/>
  <path id="Path_8" data-name="Path 8" d="M155.07,113.67a22.5,22.5,0,0,0,21.513-22.477c0-.088,0-.175,0-.262L160.961,75.313l-16.7,17.455,9.278,9.278-4.278,5.817Zm0,0" transform="translate(-131.583 -68.693)" fill="#0053bf"/>
  <path id="Path_9" data-name="Path 9" d="M160.958,71.5v5.095s-5.85-.849-5.85,2.925v3.774h5.283l-.66,5.755h-4.623v15h-5.85v-15l-5-.094V83.293h4.906v-4.34s-.324-6.456,6.038-7.642A17,17,0,0,1,160.958,71.5Zm0,0" transform="translate(-131.579 -64.881)" fill="#fff"/>
  <path id="Path_10" data-name="Path 10" d="M262.555,76.595V71.5a17,17,0,0,0-5.755-.188,8.923,8.923,0,0,0-1.155.294v32.444h1.06v-15h4.623l.661-5.755H256.7V79.519C256.7,75.745,262.555,76.595,262.555,76.595Zm0,0" transform="translate(-233.176 -64.88)" fill="#dce1eb"/>
</svg>
