<svg xmlns="http://www.w3.org/2000/svg" xmlns:xlink="http://www.w3.org/1999/xlink" width="90" height="90" viewBox="0 0 90 90">
  <defs>
    <linearGradient id="linear-gradient" x1="0.5" x2="0.5" y2="1" gradientUnits="objectBoundingBox">
      <stop offset="0" stop-color="#f85c03"/>
      <stop offset="1" stop-color="#d24d00"/>
    </linearGradient>
  </defs>
  <g id="Group_2063" data-name="Group 2063" transform="translate(-691 -946)">
    <path id="Rectangle_413" data-name="Rectangle 413" d="M0,0H70A20,20,0,0,1,90,20V90a0,0,0,0,1,0,0H20A20,20,0,0,1,0,70V0A0,0,0,0,1,0,0Z" transform="translate(691 946)" fill="url(#linear-gradient)"/>
    <g id="gallery" transform="translate(713.875 1438.768)">
      <path id="Path_628" data-name="Path 628" d="M88.666-468.656a4.937,4.937,0,0,0-3.337,3.206c-.149.457-.158,1.115-.184,11.154-.018,7,.009,10.917.061,11.373a5.371,5.371,0,0,0,1.142,2.521,5.275,5.275,0,0,0,1.941,1.3l.571.22,14.781.026c12.893.018,14.851,0,15.343-.114a4.79,4.79,0,0,0,3.513-3.478c.193-.834.193-21.886,0-22.72a4.789,4.789,0,0,0-2.986-3.372l-.527-.2-14.93-.018C91.423-468.779,89.052-468.762,88.666-468.656Zm29.931,3.891.255.281v6.763c0,3.724-.018,6.763-.044,6.763s-1.344-1.528-2.942-3.408-3.109-3.566-3.364-3.776a3.407,3.407,0,0,0-3.021-.58c-.9.29-1.124.527-4.874,5.024L101-449.37l-1.335-1.317c-1.677-1.66-1.95-1.809-3.25-1.809-1.44,0-1.432-.009-4.716,3.276L88.9-446.436v-8.941c0-9.88-.035-9.336.553-9.591.237-.105,2.529-.123,14.579-.105l14.307.018Z" transform="translate(-77.547)" fill="#fff"/>
      <path id="Path_629" data-name="Path 629" d="M152.068-404.759a3.656,3.656,0,0,0-2.485,2.81,3.62,3.62,0,0,0,1.028,3.355,3.716,3.716,0,0,0,6.315-2.108,3.674,3.674,0,0,0-1.045-3.144,3.021,3.021,0,0,0-1.493-.922A3.935,3.935,0,0,0,152.068-404.759Z" transform="translate(-136.26 -58.224)" fill="#fff"/>
      <path id="Path_630" data-name="Path 630" d="M2.45-311.194C.816-305.74.166-303.422.131-303.009a4.525,4.525,0,0,0,.483,2.187,4.728,4.728,0,0,0,1.809,1.792c.3.141,2.687.826,5.709,1.642,2.863.764,6.921,1.853,9.02,2.415s4.312,1.159,4.918,1.317,3.2.852,5.753,1.537,4.892,1.273,5.182,1.291a4.269,4.269,0,0,0,3.882-2,28.3,28.3,0,0,0,1.177-3.329c.492-1.572.913-2.907.931-2.96.035-.088-2.969-.114-14.175-.132l-14.21-.026-.641-.2a7.15,7.15,0,0,1-4.567-4c-.606-1.475-.58-1.063-.632-8.537l-.044-6.78Z" transform="translate(0 -136.797)" fill="#fff"/>
    </g>
  </g>
</svg>
