<svg id="gender" xmlns="http://www.w3.org/2000/svg" width="21.85" height="16.09" viewBox="0 0 21.85 16.09">
  <path id="gender-2" data-name="gender" d="M-13455.715,1803.344v-2.017h-2.021a.809.809,0,0,1-.811-.811.809.809,0,0,1,.811-.811h2.021v-1.517a5.1,5.1,0,0,1-4.285-5.032,5.093,5.093,0,0,1,5.1-5.091,5.093,5.093,0,0,1,5.092,5.091,5.094,5.094,0,0,1-4.281,5.032v1.517h2.018a.809.809,0,0,1,.811.811.809.809,0,0,1-.811.811h-2.018v2.017a.809.809,0,0,1-.811.811A.811.811,0,0,1-13455.715,1803.344Zm5.975-3.929a4.991,4.991,0,0,1-.111-1.025,5.086,5.086,0,0,1,4.037-5.014,5.058,5.058,0,0,1,2.281.036l1.688-2.95-1.17.4a.815.815,0,0,1-1.029-.5.806.806,0,0,1,.5-1.031l3.211-1.107a.812.812,0,0,1,.291-.042h.027l.018,0,.045,0,.01,0,.049.009.012,0,.047.013.01,0,.037.013a.811.811,0,0,1,.484.495l1.107,3.211a.816.816,0,0,1-.5,1.03.8.8,0,0,1-1.029-.5l-.525-1.523-1.785,3.11a5.08,5.08,0,0,1,2.26,3.247,5,5,0,0,1,.113,1.026,5.086,5.086,0,0,1-4.037,5.014,5.115,5.115,0,0,1-1.066.113A5.086,5.086,0,0,1-13449.74,1799.414Z" transform="translate(13460 -1788.064)" fill="#f78739"/>
</svg>
