<svg xmlns="http://www.w3.org/2000/svg" width="21.445" height="21.445" viewBox="0 0 21.445 21.445">
  <g id="google" transform="translate(-9.055 -9.055)">
    <path id="Path_605" data-name="Path 605" d="M128.361,126.113v3.79h5.927a6.669,6.669,0,1,1-1.9-6.9l2.781-2.977a10.784,10.784,0,1,0,3.323,6.09Z" transform="translate(-108.152 -108.153)" fill="#4285f4"/>
    <path id="Path_606" data-name="Path 606" d="M142.849,121.275A6.624,6.624,0,0,1,147.308,123l2.781-2.977a10.722,10.722,0,0,0-16.714,2.885l3.272,2.621A6.652,6.652,0,0,1,142.849,121.275Z" transform="translate(-123.071 -108.153)" fill="#ea4335"/>
    <path id="Path_607" data-name="Path 607" d="M121.276,196.01a6.624,6.624,0,0,1,.454-2.4l-3.272-2.621a10.726,10.726,0,0,0,.011,10.067l3.253-2.666A6.628,6.628,0,0,1,121.276,196.01Z" transform="translate(-108.154 -176.232)" fill="#fbbc05"/>
    <path id="Path_608" data-name="Path 608" d="M146.675,289.93a6.642,6.642,0,0,1-9.91-3.149l-3.253,2.666a10.719,10.719,0,0,0,16.432,3.1Z" transform="translate(-123.197 -264.625)" fill="#34a853"/>
    <path id="Path_609" data-name="Path 609" d="M271.875,234.287a10.684,10.684,0,0,0-.159-1.818H261.584v3.79h5.927a6.668,6.668,0,0,1-2.658,3.556l3.269,2.618A10.7,10.7,0,0,0,271.875,234.287Z" transform="translate(-241.375 -214.509)" fill="#4285f4"/>
  </g>
</svg>
