<svg xmlns="http://www.w3.org/2000/svg" width="45" height="45" viewBox="0 0 45 45">
  <g id="instagram" transform="translate(-0.248 0.486)">
    <circle id="Ellipse_4" data-name="Ellipse 4" cx="22.5" cy="22.5" r="22.5" transform="translate(0.248 -0.486)" fill="#6c27b3"/>
    <path id="Path_11" data-name="Path 11" d="M145.133,126.028a41.627,41.627,0,0,1-8.556.058c-4.055-.292-9.981-2.044-12.164,1.46-3.508,5.61-1.778,12.791-.96,19.147l13.125,12.365c11.408-1.543,18.993-10.661,19.621-21.7Z" transform="translate(-110.982 -114.791)" fill="#501a96"/>
    <g id="Group_32" data-name="Group 32" transform="translate(10.157 9.25)">
      <path id="Path_12" data-name="Path 12" d="M128.082,109.468H117.366a7.667,7.667,0,0,0-7.9,7.394v10.032a7.667,7.667,0,0,0,7.9,7.394h10.716a7.667,7.667,0,0,0,7.9-7.394V116.862a7.667,7.667,0,0,0-7.9-7.394Zm5.231,17.426a5.072,5.072,0,0,1-5.231,4.9H117.366a5.072,5.072,0,0,1-5.231-4.9V116.862a5.072,5.072,0,0,1,5.231-4.9h10.716a5.072,5.072,0,0,1,5.231,4.9Z" transform="translate(-109.468 -109.468)" fill="#fff"/>
      <path id="Path_13" data-name="Path 13" d="M187.059,180.2a6.433,6.433,0,1,0,6.857,6.419,6.657,6.657,0,0,0-6.857-6.419Zm0,10.342a3.931,3.931,0,1,1,4.19-3.922,4.063,4.063,0,0,1-4.19,3.922Z" transform="translate(-173.803 -174.211)" fill="#fff"/>
    </g>
    <g id="Group_33" data-name="Group 33" transform="translate(23.361 9.25)">
      <path id="Path_14" data-name="Path 14" d="M317.063,164.149a1.647,1.647,0,1,1-1.643-1.538,1.593,1.593,0,0,1,1.643,1.538Z" transform="translate(-308.498 -158.11)" fill="#dce1eb"/>
      <path id="Path_15" data-name="Path 15" d="M260.836,109.468h-5.41v2.5h5.41a5.072,5.072,0,0,1,5.231,4.9v10.032a5.072,5.072,0,0,1-5.231,4.9h-5.41v2.5h5.41a7.667,7.667,0,0,0,7.9-7.394V116.862A7.667,7.667,0,0,0,260.836,109.468Z" transform="translate(-255.426 -109.468)" fill="#dce1eb"/>
      <path id="Path_16" data-name="Path 16" d="M255.478,180.2h-.052v2.5h.052a3.931,3.931,0,1,1,0,7.845h-.052v2.5h.052a6.433,6.433,0,1,0,0-12.839Z" transform="translate(-255.426 -174.211)" fill="#dce1eb"/>
    </g>
  </g>
</svg>
