<svg xmlns="http://www.w3.org/2000/svg" width="27.615" height="28" viewBox="0 0 27.615 28">
  <g id="instagram" transform="translate(0.366)">
    <ellipse id="Ellipse_4" data-name="Ellipse 4" cx="13.5" cy="14" rx="13.5" ry="14" transform="translate(-0.366)" fill="#6c27b3"/>
    <path id="Path_11" data-name="Path 11" d="M135.875,125.8a23.18,23.18,0,0,1-5.087.037c-2.411-.185-5.934-1.3-7.232.927-2.085,3.563-1.057,8.124-.571,12.16l7.247,7.246a13.77,13.77,0,0,0,13.007-13.005Z" transform="translate(-115.99 -118.646)" fill="#501a96"/>
    <g id="Group_32" data-name="Group 32" transform="translate(5.619 5.888)">
      <path id="Path_12" data-name="Path 12" d="M120.535,109.468h-6.371a4.7,4.7,0,0,0-4.7,4.7v6.371a4.7,4.7,0,0,0,4.7,4.7h6.371a4.7,4.7,0,0,0,4.7-4.7v-6.371a4.7,4.7,0,0,0-4.7-4.7Zm3.11,11.067a3.11,3.11,0,0,1-3.11,3.11h-6.371a3.11,3.11,0,0,1-3.11-3.11v-6.371a3.11,3.11,0,0,1,3.11-3.11h6.371a3.11,3.11,0,0,1,3.11,3.11Z" transform="translate(-109.468 -109.468)" fill="#fff"/>
      <path id="Path_13" data-name="Path 13" d="M184.279,180.2a4.077,4.077,0,1,0,4.077,4.077,4.082,4.082,0,0,0-4.077-4.077Zm0,6.568a2.491,2.491,0,1,1,2.491-2.491,2.491,2.491,0,0,1-2.491,2.491Z" transform="translate(-176.397 -176.397)" fill="#fff"/>
    </g>
    <g id="Group_33" data-name="Group 33" transform="translate(13.469 5.888)">
      <path id="Path_14" data-name="Path 14" d="M315.731,163.588a.977.977,0,1,1-.977-.977.977.977,0,0,1,.977.977Z" transform="translate(-310.638 -159.753)" fill="#d1d1d1"/>
      <path id="Path_15" data-name="Path 15" d="M258.643,109.468h-3.217v1.586h3.217a3.11,3.11,0,0,1,3.11,3.11v6.371a3.11,3.11,0,0,1-3.11,3.11h-3.217v1.586h3.217a4.7,4.7,0,0,0,4.7-4.7v-6.371A4.7,4.7,0,0,0,258.643,109.468Z" transform="translate(-255.426 -109.468)" fill="#d1d1d1"/>
      <path id="Path_16" data-name="Path 16" d="M255.457,180.2h-.031v1.586h.031a2.491,2.491,0,0,1,0,4.982h-.031v1.586h.031a4.077,4.077,0,0,0,0-8.154Z" transform="translate(-255.426 -176.397)" fill="#d1d1d1"/>
    </g>
  </g>
</svg>
