<svg id="language" xmlns="http://www.w3.org/2000/svg" width="23.437" height="22" viewBox="0 0 23.437 22">
  <path id="language-2" data-name="language" d="M3.024,18.144H2.269A2.227,2.227,0,0,1,0,15.877V7.56A2.227,2.227,0,0,1,2.269,5.293H12.1V3.78H9.072V0h12.1a2.228,2.228,0,0,1,2.268,2.268v8.316a2.228,2.228,0,0,1-2.268,2.268H12.853v5.292H7.788L3.024,22Zm4.763-4.309.378,1.21H9.979L7.484,8.316H5.671l-2.5,6.729H4.99l.454-1.21Zm11.869-3.251V9.073a5.129,5.129,0,0,1-1.437-.227,5.748,5.748,0,0,0,1.663-4.309l-.076-.756H17.313V2.268H15.8V3.78H13.533V5.293h4.536a3.91,3.91,0,0,1-1.436,2.8,3.8,3.8,0,0,1-1.209-1.663H13.835A5.169,5.169,0,0,0,15.2,8.845a5.744,5.744,0,0,1-1.588.227l.076,1.512a8.1,8.1,0,0,0,3.023-.756A6.829,6.829,0,0,0,19.657,10.584ZM5.821,12.55l.757-2.343.756,2.343Z" transform="translate(0)" fill="#f78739"/>
</svg>
