<svg xmlns="http://www.w3.org/2000/svg" width="27.376" height="28" viewBox="0 0 27.376 28">
  <g id="linkedin" transform="translate(-0.269)">
    <ellipse id="Ellipse_5" data-name="Ellipse 5" cx="13.5" cy="14" rx="13.5" ry="14" transform="translate(0.269)" fill="#4376b1"/>
    <path id="Path_17" data-name="Path 17" d="M138.49,123.461l-6.255-6.263a110.993,110.993,0,0,1-11.634.512c-1.576,0-3.153.742-2.874,2.5a31.1,31.1,0,0,1,.185,10.571,4.154,4.154,0,0,1-.6,1.348l6.248,6.248c.4.035.8.054,1.211.054a13.77,13.77,0,0,0,13.77-13.77C138.543,124.258,138.525,123.857,138.49,123.461Z" transform="translate(-110.899 -110.894)" fill="#369"/>
    <path id="Path_18" data-name="Path 18" d="M123.806,109.468H110.895a1.426,1.426,0,0,0-1.426,1.426v12.911a1.426,1.426,0,0,0,1.426,1.426h12.911a1.426,1.426,0,0,0,1.426-1.426V110.894a1.426,1.426,0,0,0-1.426-1.426Zm-9.459,13.611a.415.415,0,0,1-.415.415h-1.766a.415.415,0,0,1-.415-.415v-7.4a.415.415,0,0,1,.415-.415h1.766a.415.415,0,0,1,.415.415v7.4Zm-1.3-8.517a1.678,1.678,0,1,1,1.678-1.678,1.678,1.678,0,0,1-1.678,1.678Zm10.529,8.551a.382.382,0,0,1-.381.382h-1.9a.382.382,0,0,1-.381-.382v-3.473c0-.518.152-2.27-1.354-2.27-1.168,0-1.405,1.2-1.453,1.738v4.006a.382.382,0,0,1-.382.382H115.9a.382.382,0,0,1-.382-.382v-7.471a.382.382,0,0,1,.382-.382h1.833a.382.382,0,0,1,.382.382v.646a2.6,2.6,0,0,1,2.447-1.152c3.035,0,3.018,2.836,3.018,4.394v3.584h0Z" transform="translate(-103.476 -103.58)" fill="#fff"/>
    <path id="Path_19" data-name="Path 19" d="M261.914,109.468h-6.487v5.791h.411a.382.382,0,0,1,.382.382v.646a2.6,2.6,0,0,1,2.447-1.152c3.035,0,3.018,2.836,3.018,4.394v3.584a.382.382,0,0,1-.381.382h-1.9a.382.382,0,0,1-.381-.382v-3.473c0-.518.152-2.27-1.354-2.27-1.168,0-1.405,1.2-1.453,1.738v4.006a.382.382,0,0,1-.382.382h-.411v1.737h6.487a1.426,1.426,0,0,0,1.426-1.426V110.894A1.426,1.426,0,0,0,261.914,109.468Z" transform="translate(-241.583 -103.58)" fill="#d1d1d1"/>
  </g>
</svg>
