<svg xmlns="http://www.w3.org/2000/svg" width="45" height="45" viewBox="0 0 45 45">
  <g id="linkedin" transform="translate(0.403 0.486)">
    <circle id="Ellipse_5" data-name="Ellipse 5" cx="22.5" cy="22.5" r="22.5" transform="translate(-0.403 -0.486)" fill="#4376b1"/>
    <path id="Path_610" data-name="Path 610" d="M144.626,126.028a39.8,39.8,0,0,1-8.366.058c-3.965-.292-9.759-2.044-11.894,1.46-3.43,5.61-1.738,12.791-.939,19.147l12.833,12.365c11.155-1.543,18.571-10.661,19.185-21.7Z" transform="translate(-110.849 -114.791)" fill="#369"/>
    <path id="Path_18" data-name="Path 18" d="M133.047,109.468H111.814a2.3,2.3,0,0,0-2.345,2.245v20.33a2.3,2.3,0,0,0,2.345,2.245h21.233a2.3,2.3,0,0,0,2.345-2.245v-20.33a2.3,2.3,0,0,0-2.345-2.245ZM117.491,130.9a.668.668,0,0,1-.683.653h-2.9a.668.668,0,0,1-.683-.653V119.24a.668.668,0,0,1,.683-.653h2.9a.668.668,0,0,1,.683.653V130.9Zm-2.135-13.411a2.645,2.645,0,1,1,2.76-2.642,2.7,2.7,0,0,1-2.76,2.642Zm17.315,13.464a.615.615,0,0,1-.627.6h-3.117a.615.615,0,0,1-.627-.6v-5.469c0-.816.25-3.575-2.227-3.575-1.921,0-2.311,1.889-2.389,2.736v6.308a.615.615,0,0,1-.627.6h-3.015a.615.615,0,0,1-.628-.6V119.188a.615.615,0,0,1,.628-.6h3.015a.615.615,0,0,1,.627.6V120.2c.712-1.023,1.771-1.814,4.025-1.814,4.991,0,4.963,4.465,4.963,6.918v5.643h0Z" transform="translate(-100.118 -100.218)" fill="#fff"/>
    <path id="Path_19" data-name="Path 19" d="M266.094,109.468H255.427v9.119h.676a.615.615,0,0,1,.627.6V120.2c.712-1.023,1.771-1.814,4.025-1.814,4.991,0,4.963,4.465,4.963,6.918v5.643a.615.615,0,0,1-.627.6h-3.117a.615.615,0,0,1-.627-.6v-5.469c0-.816.25-3.575-2.227-3.575-1.921,0-2.311,1.889-2.389,2.736v6.308a.615.615,0,0,1-.628.6h-.676v2.736h10.667a2.3,2.3,0,0,0,2.345-2.245v-20.33A2.3,2.3,0,0,0,266.094,109.468Z" transform="translate(-233.166 -100.218)" fill="#dce1eb"/>
  </g>
</svg>
