<svg xmlns="http://www.w3.org/2000/svg" width="18.445" height="18.445" viewBox="0 0 18.445 18.445">
  <g id="logout" transform="translate(0 -0.004)">
    <path id="Path_599" data-name="Path 599" d="M11.528,9.995a.768.768,0,0,0-.769.769v3.074a.769.769,0,0,1-.769.769H7.685V3.078A1.549,1.549,0,0,0,6.639,1.617l-.228-.076h3.58a.769.769,0,0,1,.769.769V4.615a.769.769,0,1,0,1.537,0V2.309A2.308,2.308,0,0,0,9.991,0H1.729a.6.6,0,0,0-.082.017C1.61.018,1.575,0,1.537,0A1.539,1.539,0,0,0,0,1.541V15.375a1.549,1.549,0,0,0,1.047,1.461l4.625,1.542a1.591,1.591,0,0,0,.476.071,1.539,1.539,0,0,0,1.537-1.537v-.769H9.991A2.308,2.308,0,0,0,12.3,13.838V10.763a.768.768,0,0,0-.769-.769Zm0,0" fill="#f78739"/>
    <path id="Path_600" data-name="Path 600" d="M285.561,109.965l-3.074-3.074a.768.768,0,0,0-1.312.543v2.306H278.1a.768.768,0,1,0,0,1.537h3.074v2.306a.768.768,0,0,0,1.312.543l3.074-3.074A.768.768,0,0,0,285.561,109.965Zm0,0" transform="translate(-267.341 -102.819)" fill="#f78739"/>
  </g>
</svg>
