<svg xmlns="http://www.w3.org/2000/svg" width="48.422" height="47.619" viewBox="0 0 48.422 47.619">
  <g id="pin" transform="translate(0 0)">
    <g id="Group_113" data-name="Group 113" transform="translate(0 0)">
      <g id="Group_112" data-name="Group 112">
        <path id="Path_205" data-name="Path 205" d="M93.155,37.99c1.994,2.812,3.985,5.326,5.3,6.946.192.236.372.454.546.665H95.024a.807.807,0,1,0,0,1.614h12.912a.807.807,0,1,0,0-1.614h-3.982c.174-.211.354-.429.547-.665,1.319-1.614,3.309-4.134,5.3-6.946a70.908,70.908,0,0,0,5.331-8.592c1.648-3.236,2.484-5.923,2.484-7.986a16.13,16.13,0,0,0-4.727-11.428.807.807,0,1,0-1.142,1.14,14.522,14.522,0,0,1,4.255,10.288c0,1.806-.776,4.247-2.308,7.253a69.306,69.306,0,0,1-5.21,8.393c-1.968,2.775-3.934,5.262-5.238,6.86-.433.531-.823,1-1.156,1.4a.818.818,0,0,1-1.23,0c-.333-.4-.722-.867-1.156-1.4-1.3-1.6-3.27-4.084-5.238-6.86a69.307,69.307,0,0,1-5.21-8.393c-1.533-3.006-2.308-5.447-2.308-7.253A14.531,14.531,0,0,1,107.138,8.006a.807.807,0,0,0,.63-1.487A16.147,16.147,0,0,0,85.34,21.412c0,2.063.836,4.749,2.484,7.99A70.858,70.858,0,0,0,93.155,37.99Z" transform="translate(-77.269 -5.246)" fill="#fff"/>
        <path id="Path_206" data-name="Path 206" d="M178.731,83.7a.807.807,0,0,0,0-1.614,8.07,8.07,0,1,0,5.706,2.364A.807.807,0,1,0,183.3,85.59a6.456,6.456,0,1,1-4.565-1.891Z" transform="translate(-154.52 -74.818)" fill="#fff"/>
        <path id="Path_207" data-name="Path 207" d="M48.118,373.829l-4.963-8.877a2.508,2.508,0,0,0-2.2-1.268H35.207a.807.807,0,0,0,0,1.614h5.752a.9.9,0,0,1,.788.441l4.962,8.877a.726.726,0,0,1-.007.746.888.888,0,0,1-.781.428H2.5a.888.888,0,0,1-.78-.428.726.726,0,0,1-.007-.746l4.962-8.877a.894.894,0,0,1,.788-.441h5.752a.807.807,0,0,0,0-1.614H7.464a2.51,2.51,0,0,0-2.2,1.268L.3,373.829a2.341,2.341,0,0,0,.025,2.349A2.486,2.486,0,0,0,2.5,377.4H45.921a2.486,2.486,0,0,0,2.173-1.225A2.34,2.34,0,0,0,48.118,373.829Z" transform="translate(0 -329.784)" fill="#fff"/>
        <path id="Path_208" data-name="Path 208" d="M356.325,406.351H353.1a.811.811,0,0,0-.448.136l-2.421,1.614a.807.807,0,1,0,.9,1.343l2.215-1.478h2.986a.807.807,0,0,0,0-1.614Z" transform="translate(-316.78 -368.417)" fill="#fff"/>
        <path id="Path_209" data-name="Path 209" d="M366.937,458.358a.807.807,0,0,0,.807.807H374.2a.807.807,0,0,0,0-1.614h-6.456A.807.807,0,0,0,366.937,458.358Z" transform="translate(-332.234 -414.775)" fill="#fff"/>
        <path id="Path_210" data-name="Path 210" d="M91.793,409.578a.807.807,0,0,0,.449-1.478l-2.421-1.614a.812.812,0,0,0-.449-.136H86.144a.807.807,0,0,0,0,1.614H89.13l2.218,1.478A.805.805,0,0,0,91.793,409.578Z" transform="translate(-77.266 -368.416)" fill="#fff"/>
        <path id="Path_211" data-name="Path 211" d="M60.544,457.551a.807.807,0,0,0,0,1.614H67a.807.807,0,0,0,0-1.614Z" transform="translate(-54.087 -414.775)" fill="#fff"/>
      </g>
    </g>
  </g>
</svg>
