<svg xmlns="http://www.w3.org/2000/svg" width="14" height="13" viewBox="0 0 14 13">
  <g id="Polygon_2" data-name="Polygon 2" fill="none">
    <path d="M7,0,9.45,3.894,14,4.966,10.964,8.444,11.326,13,7,11.256,2.674,13l.362-4.556L0,4.966,4.55,3.894Z" stroke="none"/>
    <path d="M 7 1.877752304077148 L 5.178159713745117 4.773220062255859 L 1.844753265380859 5.558393955230713 L 4.066020011901855 8.103389739990234 L 3.798633575439453 11.46829319000244 L 7 10.17765998840332 L 10.20136642456055 11.46829319000244 L 9.933979988098145 8.103389739990234 L 12.15524673461914 5.558393955230713 L 8.821840286254883 4.773220062255859 L 7 1.877752304077148 M 7 0 L 9.449999809265137 3.893810272216797 L 14 4.965559959411621 L 10.96417999267578 8.443809509277344 L 11.32624053955078 13 L 7 11.25586986541748 L 2.673760414123535 13 L 3.035820007324219 8.443809509277344 L 0 4.965559959411621 L 4.550000190734863 3.893810272216797 L 7 0 Z" stroke="none" fill="#ffc400"/>
  </g>
</svg>
