<svg xmlns="http://www.w3.org/2000/svg" width="21.6" height="21.6" viewBox="0 0 21.6 21.6">
  <g id="profile" transform="translate(0)">
    <path id="Path_174" data-name="Path 174" d="M21.091,8.273,19.2,7.9a8.869,8.869,0,0,0-.406-.987l1.066-1.6a.633.633,0,0,0-.079-.8l-2.7-2.7a.633.633,0,0,0-.8-.079L14.692,2.8A8.869,8.869,0,0,0,13.7,2.4L13.327.509A.633.633,0,0,0,12.706,0H8.894a.633.633,0,0,0-.62.509L7.9,2.4a8.882,8.882,0,0,0-.988.406L5.31,1.736a.633.633,0,0,0-.8.079l-2.7,2.7a.633.633,0,0,0-.079.8L2.8,6.908A8.887,8.887,0,0,0,2.4,7.9L.509,8.273A.633.633,0,0,0,0,8.894v3.813a.633.633,0,0,0,.509.621L2.4,13.7a8.871,8.871,0,0,0,.406.987l-1.066,1.6a.633.633,0,0,0,.079.8l2.7,2.7a.633.633,0,0,0,.8.079l1.6-1.066A8.881,8.881,0,0,0,7.9,19.2l.377,1.887a.633.633,0,0,0,.62.509h3.813a.633.633,0,0,0,.621-.509L13.7,19.2a8.881,8.881,0,0,0,.988-.406l1.6,1.066a.633.633,0,0,0,.8-.079l2.7-2.7a.633.633,0,0,0,.079-.8l-1.066-1.6A8.869,8.869,0,0,0,19.2,13.7l1.887-.377a.633.633,0,0,0,.509-.621V8.894A.633.633,0,0,0,21.091,8.273ZM10.8,17.128A6.328,6.328,0,1,1,17.128,10.8,6.335,6.335,0,0,1,10.8,17.128Z" fill="#f78739"/>
    <g id="profile_fill-dummy" transform="translate(6.372 5.854)">
      <g id="Group_1492" data-name="Group 1492" transform="translate(1.86)">
        <g id="Group_1491" data-name="Group 1491" transform="translate(0)">
          <path id="Path_167" data-name="Path 167" d="M113.36,0a2.569,2.569,0,1,0,2.569,2.569A2.575,2.575,0,0,0,113.36,0Z" transform="translate(-110.791)" fill="#f78739"/>
        </g>
      </g>
      <path id="Subtraction_21" data-name="Subtraction 21" d="M4.417,4.572a5.058,5.058,0,0,1-3.051-1.01l-.013-.01a6.655,6.655,0,0,1-.5-.438,4.253,4.253,0,0,1-.516-.583,4.293,4.293,0,0,1-.3-.449.24.24,0,0,1-.011-.212A2.71,2.71,0,0,1,.278,1.4,3.169,3.169,0,0,1,2.488.007.366.366,0,0,1,2.56,0a.432.432,0,0,1,.254.085A2.7,2.7,0,0,0,4.428.613,2.7,2.7,0,0,0,6.043.086.449.449,0,0,1,6.312,0l.057,0A3.208,3.208,0,0,1,8.578,1.4a2.375,2.375,0,0,1,.258.472.191.191,0,0,1-.033.212,3.857,3.857,0,0,1-.3.449,5.192,5.192,0,0,1-.516.583,4.983,4.983,0,0,1-.516.448A5.058,5.058,0,0,1,4.417,4.572Zm.042-1.94a.24.24,0,0,0-.239.239v.307a.24.24,0,0,0,.48,0V2.871A.24.24,0,0,0,4.459,2.632Zm0-1.178a.24.24,0,0,0-.239.239V2A.24.24,0,0,0,4.7,2V1.693A.24.24,0,0,0,4.459,1.453Z" transform="translate(0 5.321)" fill="#f78739"/>
    </g>
  </g>
</svg>
