<svg xmlns="http://www.w3.org/2000/svg" width="15.989" height="17.861" viewBox="0 0 15.989 17.861">
  <g id="profile_fill-dummy" transform="translate(0.001)">
    <g id="Group_1492" data-name="Group 1492" transform="translate(3.358)">
      <g id="Group_1491" data-name="Group 1491" transform="translate(0)">
        <path id="Path_167" data-name="Path 167" d="M115.429,0a4.637,4.637,0,1,0,4.637,4.637A4.65,4.65,0,0,0,115.429,0Z" transform="translate(-110.791)" fill="#f78739"/>
      </g>
    </g>
    <path id="Subtraction_21" data-name="Subtraction 21" d="M7.975,8.255A9.135,9.135,0,0,1,2.467,6.432l-.016-.013a12.1,12.1,0,0,1-.915-.8A7.7,7.7,0,0,1,.6,4.569a8.087,8.087,0,0,1-.547-.81.436.436,0,0,1-.02-.385A5.044,5.044,0,0,1,.5,2.524,5.72,5.72,0,0,1,4.492.013.661.661,0,0,1,4.621,0a.779.779,0,0,1,.458.154A4.876,4.876,0,0,0,8,1.106,4.871,4.871,0,0,0,10.912.154.812.812,0,0,1,11.4.007a1,1,0,0,1,.1.005,5.791,5.791,0,0,1,3.99,2.511,4.283,4.283,0,0,1,.466.85.344.344,0,0,1-.061.385,7.078,7.078,0,0,1-.546.81,9.388,9.388,0,0,1-.932,1.053,8.97,8.97,0,0,1-.932.81A9.135,9.135,0,0,1,7.975,8.255Zm.077-3.5a.433.433,0,0,0-.432.433v.553a.432.432,0,1,0,.865,0V5.185A.433.433,0,0,0,8.052,4.752Zm0-2.128a.433.433,0,0,0-.432.433v.554a.432.432,0,0,0,.865,0V3.057A.433.433,0,0,0,8.052,2.624Z" transform="translate(0 9.607)" fill="#f78739"/>
  </g>
</svg>
