<svg xmlns="http://www.w3.org/2000/svg" width="18" height="21.6" viewBox="0 0 18 21.6">
  <path id="reports_icon" d="M17.525,0H4.475A2.477,2.477,0,0,0,2,2.475v16.65A2.477,2.477,0,0,0,4.475,21.6h13.05A2.477,2.477,0,0,0,20,19.125V2.475A2.477,2.477,0,0,0,17.525,0ZM9.875,11.7V7.268a4.49,4.49,0,1,1-3.333,8.043l3.135-3.135a.672.672,0,0,0,.2-.477ZM8.525,7.268v4.153L5.588,14.357A4.463,4.463,0,0,1,8.525,7.268Zm8.1,11.856H5.375a.675.675,0,0,1,0-1.35h11.25a.675.675,0,1,1,0,1.35Zm0-2.925h-1.35a.675.675,0,0,1,0-1.35h1.35a.675.675,0,1,1,0,1.35Zm0-2.475h-1.35a.675.675,0,0,1,0-1.35h1.35a.675.675,0,0,1,0,1.35Zm0-2.7h-1.35a.675.675,0,0,1,0-1.35h1.35a.675.675,0,0,1,0,1.35Zm0-2.475h-1.35a.675.675,0,1,1,0-1.35h1.35a.675.675,0,1,1,0,1.35Z" transform="translate(-2)" fill="#f78739"/>
</svg>
