<svg xmlns="http://www.w3.org/2000/svg" width="18.002" height="17.998" viewBox="0 0 18.002 17.998">
  <path id="stripe2" d="M15456,4816h-18v-18h18v18Zm-12.18-7.072h0l-.376,2.339a7.62,7.62,0,0,0,3.479.842,4.231,4.231,0,0,0,2.665-.764,2.9,2.9,0,0,0,1.067-2.417c0-1.736-1.064-2.465-2.781-3.08-.919-.338-1.416-.6-1.416-1.013,0-.35.293-.551.8-.551a6.186,6.186,0,0,1,2.568.687l.372-2.315a7.2,7.2,0,0,0-3.092-.664,3.968,3.968,0,0,0-2.552.788,2.811,2.811,0,0,0-.989,2.254c0,1.708,1.045,2.431,2.73,3.041,1.084.387,1.45.662,1.45,1.09s-.36.652-.988.652a6.848,6.848,0,0,1-2.94-.889Z" transform="translate(-15437.999 -4798)" fill="#fff"/>
</svg>
