<svg xmlns="http://www.w3.org/2000/svg" xmlns:xlink="http://www.w3.org/1999/xlink" width="28.211" height="31.115" viewBox="0 0 28.211 31.115">
  <defs>
    <filter id="Path_636" x="0" y="0" width="28.211" height="31.115" filterUnits="userSpaceOnUse">
      <feOffset dx="2" dy="2" input="SourceAlpha"/>
      <feGaussianBlur stdDeviation="3.5" result="blur"/>
      <feFlood flood-opacity="0.184"/>
      <feComposite operator="in" in2="blur"/>
      <feComposite in="SourceGraphic"/>
    </filter>
  </defs>
  <g id="stripe" transform="translate(3.057 4.509)">
    <rect id="Rectangle_424" data-name="Rectangle 424" width="18" height="18" fill="#f85c03"/>
    <g transform="matrix(1, 0, 0, 1, -3.06, -4.51)" filter="url(#Path_636)">
      <path id="Path_636-2" data-name="Path 636" d="M81.432,60.314c-.914-.338-1.415-.6-1.415-1.014,0-.351.288-.551.8-.551a6.159,6.159,0,0,1,2.566.688l.376-2.316a7.216,7.216,0,0,0-3.092-.664,3.962,3.962,0,0,0-2.554.789,2.806,2.806,0,0,0-.989,2.253c0,1.7,1.039,2.429,2.729,3.042,1.089.388,1.452.664,1.452,1.089s-.351.651-.989.651a6.9,6.9,0,0,1-2.942-.889L77,65.735a7.63,7.63,0,0,0,3.48.839,4.248,4.248,0,0,0,2.666-.764,2.907,2.907,0,0,0,1.064-2.416c0-1.74-1.064-2.466-2.779-3.08Z" transform="translate(-68.5 -47.96)" fill="#fff"/>
    </g>
  </g>
</svg>
