<svg id="user" xmlns="http://www.w3.org/2000/svg" width="21.6" height="21.6" viewBox="0 0 21.6 21.6">
  <path id="Path_174" data-name="Path 174" d="M21.091,8.273,19.2,7.9a8.869,8.869,0,0,0-.406-.987l1.066-1.6a.633.633,0,0,0-.079-.8l-2.7-2.7a.633.633,0,0,0-.8-.079L14.692,2.8A8.869,8.869,0,0,0,13.7,2.4L13.327.509A.633.633,0,0,0,12.706,0H8.894a.633.633,0,0,0-.62.509L7.9,2.4a8.882,8.882,0,0,0-.988.406L5.31,1.736a.633.633,0,0,0-.8.079l-2.7,2.7a.633.633,0,0,0-.079.8L2.8,6.908A8.887,8.887,0,0,0,2.4,7.9L.509,8.273A.633.633,0,0,0,0,8.894v3.813a.633.633,0,0,0,.509.621L2.4,13.7a8.871,8.871,0,0,0,.406.987l-1.066,1.6a.633.633,0,0,0,.079.8l2.7,2.7a.633.633,0,0,0,.8.079l1.6-1.066A8.881,8.881,0,0,0,7.9,19.2l.377,1.887a.633.633,0,0,0,.62.509h3.813a.633.633,0,0,0,.621-.509L13.7,19.2a8.881,8.881,0,0,0,.988-.406l1.6,1.066a.633.633,0,0,0,.8-.079l2.7-2.7a.633.633,0,0,0,.079-.8l-1.066-1.6A8.869,8.869,0,0,0,19.2,13.7l1.887-.377a.633.633,0,0,0,.509-.621V8.894A.633.633,0,0,0,21.091,8.273ZM10.8,17.128A6.328,6.328,0,1,1,17.128,10.8,6.335,6.335,0,0,1,10.8,17.128Z" transform="translate(0 0)" fill="#f78739"/>
  <path id="profile_fill-man" d="M2491.241,445.483h-6.083a.158.158,0,0,1-.158-.158v-.933a1.633,1.633,0,0,1,1.631-1.631.657.657,0,0,0,.361-.107.155.155,0,0,1,.084-.025.163.163,0,0,1,.1.036,1.616,1.616,0,0,0,1.016.365,1.6,1.6,0,0,0,1.021-.37.161.161,0,0,1,.1-.037.154.154,0,0,1,.085.026.654.654,0,0,0,.368.111,1.633,1.633,0,0,1,1.631,1.631v.933A.158.158,0,0,1,2491.241,445.483Zm-3.021-1.967a.358.358,0,1,0,.358.358A.358.358,0,0,0,2488.221,443.515Zm-.028-.8a1.274,1.274,0,0,1-.514-.108.04.04,0,0,1-.023-.044.038.038,0,0,1,.037-.032h.01a2.436,2.436,0,0,0,.969.005h.009a.039.039,0,0,1,.014.076A1.275,1.275,0,0,1,2488.193,442.713Zm.007-.448a2.116,2.116,0,0,1-2.114-2.113c0-.248,0-.456,0-.623v-.023c0-.065,0-.128,0-.19a1.119,1.119,0,0,1,1.117-1.13,1.149,1.149,0,0,1,.268.032,3.3,3.3,0,0,1,.765.3,2,2,0,0,0,1.006.282l.106,0a5.075,5.075,0,0,0,.766-.165.154.154,0,0,1,.042-.006.158.158,0,0,1,.157.144v.008c0,.044,0,.044,0,.685v.688A2.116,2.116,0,0,1,2488.2,442.265Zm2.519-2.518a.085.085,0,0,1-.089-.087v-.168c0-.678,0-.678,0-.722v-.006c0-.005,0-.012,0-.02a.474.474,0,0,0-.472-.433.48.48,0,0,0-.128.018,5.07,5.07,0,0,1-.7.153l-.082,0a1.749,1.749,0,0,1-.881-.254,3.467,3.467,0,0,0-.822-.32,1.474,1.474,0,0,0-.342-.041,1.44,1.44,0,0,0-1.29.811,1.642,1.642,0,0,0-.142.843c0,.034,0,.068,0,.1a.087.087,0,0,1-.025.062.091.091,0,0,1-.065.026.081.081,0,0,1-.085-.082v0c0-.01,0-.01,0-.314v-.531a2.846,2.846,0,0,1,.628-1.945,2.467,2.467,0,0,1,1.841-.839l.127,0a3.792,3.792,0,0,1,1.609.372.157.157,0,0,1,.088.123.159.159,0,0,1-.055.141,2.127,2.127,0,0,1,1.3.96.168.168,0,0,1-.022.2,1.032,1.032,0,0,0-.3.729v.624c0,.487,0,.487,0,.513v.007A.083.083,0,0,1,2490.718,439.748Z" transform="translate(-2477.4 -430.146)" fill="#f78739"/>
</svg>
