<svg xmlns="http://www.w3.org/2000/svg" width="146.738" height="72.199" viewBox="0 0 146.738 72.199">
  <g id="Group_1853" data-name="Group 1853" transform="translate(24283.049 8143.196)">
    <path id="Path_620" data-name="Path 620" d="M-24282-8141.571s3.863-5.205,22.629,10.219,36.438,1.763,36.438,1.763,14.855-12.252,26.023-11.981,18.434,7.212,20.6,9.379,19.133,15.4,38.951.84" fill="none" stroke="#f78739" stroke-linecap="round" stroke-width="1.5"/>
    <path id="Path_621" data-name="Path 621" d="M-24282-8141.571s3.863-5.205,22.629,10.219,36.438,1.763,36.438,1.763,14.855-12.252,26.023-11.981,18.434,7.212,20.6,9.379,19.133,15.4,38.951.84" transform="translate(0 17.413)" fill="none" stroke="#f78739" stroke-linecap="round" stroke-width="1.5"/>
    <path id="Path_622" data-name="Path 622" d="M-24282-8141.571s3.863-5.205,22.629,10.219,36.438,1.763,36.438,1.763,14.855-12.252,26.023-11.981,18.434,7.212,20.6,9.379,19.133,15.4,38.951.84" transform="translate(0 34.825)" fill="none" stroke="#f78739" stroke-linecap="round" stroke-width="1.5"/>
    <path id="Path_623" data-name="Path 623" d="M-24282-8141.571s3.863-5.205,22.629,10.219,36.438,1.763,36.438,1.763,14.855-12.252,26.023-11.981,18.434,7.212,20.6,9.379,19.133,15.4,38.951.84" transform="translate(0 52.238)" fill="none" stroke="#f78739" stroke-linecap="round" stroke-width="1.5"/>
  </g>
</svg>
