<svg xmlns="http://www.w3.org/2000/svg" width="22" height="22" viewBox="0 0 22 22">
  <g id="Group_2082" data-name="Group 2082" transform="translate(-905 -352)">
    <path id="Ellipse_100_-_Outline" data-name="Ellipse 100 - Outline" d="M11,1A10,10,0,1,0,21,11,10.011,10.011,0,0,0,11,1m0-1A11,11,0,1,1,0,11,11,11,0,0,1,11,0Z" transform="translate(905 352)" fill="#f78739"/>
    <path id="Path_638" data-name="Path 638" d="M-.645,1.96H1.57V-5.755H-.645ZM.482-7.174a1.4,1.4,0,0,0,1.4-1.418,1.4,1.4,0,0,0-1.4-1.418A1.4,1.4,0,0,0-.936-8.592,1.4,1.4,0,0,0,.482-7.174Z" transform="translate(915.936 367.01)" fill="#f78739"/>
  </g>
</svg>
