<svg xmlns="http://www.w3.org/2000/svg" width="14.951" height="18.655" viewBox="0 0 14.951 18.655"><g transform="translate(22459.676 -19.854)"><g transform="translate(-22457.668 19.854)"><g transform="translate(0)"><path d="M116.26,0a5.468,5.468,0,1,0,5.468,5.468A5.483,5.483,0,0,0,116.26,0Z" transform="translate(-110.791)" fill="#f78739"/></g></g><path d="M7.458,7.718a8.543,8.543,0,0,1-5.151-1.7L2.292,6a11.072,11.072,0,0,1-.855-.745,7.169,7.169,0,0,1-.871-.985,7.668,7.668,0,0,1-.511-.757.4.4,0,0,1-.019-.36,4.628,4.628,0,0,1,.436-.8A5.348,5.348,0,0,1,4.2.012.615.615,0,0,1,4.321,0,.73.73,0,0,1,4.75.144a4.555,4.555,0,0,0,2.727.89A4.555,4.555,0,0,0,10.2.144.761.761,0,0,1,10.66.007c.031,0,.063,0,.094,0a5.415,5.415,0,0,1,3.73,2.348,4.065,4.065,0,0,1,.436.8.323.323,0,0,1-.057.36,6.783,6.783,0,0,1-.511.757,8.779,8.779,0,0,1-.871.985,8.4,8.4,0,0,1-.871.758A8.543,8.543,0,0,1,7.458,7.718Zm2.218-5.51h0v1h3v-1h-3Z" transform="translate(-22459.676 30.791)" fill="#f78739"/><g transform="translate(0.956 0.02)"><path d="M.848.419c-.02,0-.057,0-.118.08A3.285,3.285,0,0,0,.45,2.642C.644,4.275,1.367,5.347,1.8,5.4a.2.2,0,0,0,.039,0c.02,0,.057,0,.118-.08a3.285,3.285,0,0,0,.28-2.143C2.042,1.542,1.319.47.886.42a.2.2,0,0,0-.039,0M.882,0A.574.574,0,0,1,1,0C1.713.086,2.449,1.453,2.64,3.057s-.235,2.838-.951,2.756S.237,4.364.046,2.76C-.135,1.243.236.057.882,0Z" transform="translate(-22456.055 22.066) rotate(-40)" fill="#fff"/><path d="M1.838.419A.2.2,0,0,0,1.8.42C1.367.47.644,1.542.45,3.175a3.285,3.285,0,0,0,.28,2.143c.061.075.1.078.118.079a.2.2,0,0,0,.039,0c.433-.049,1.155-1.121,1.35-2.755A3.285,3.285,0,0,0,1.956.5C1.9.424,1.858.421,1.838.419M1.8,0C2.45.057,2.821,1.243,2.64,2.76,2.449,4.364,1.713,5.731,1,5.813S-.145,4.661.046,3.057.973.086,1.689,0A.574.574,0,0,1,1.8,0Z" transform="translate(-22452.316 20.34) rotate(40)" fill="#fff"/><path d="M.376,0A.416.416,0,0,1,.752.447.416.416,0,0,1,.376.893.416.416,0,0,1,0,.447.416.416,0,0,1,.376,0Z" transform="translate(-22453.531 23.052)" fill="#fff"/></g></g></svg>