<svg id="appointments" xmlns="http://www.w3.org/2000/svg" width="18.382" height="19.185" viewBox="0 0 18.382 19.185">
  <path id="Path_130" data-name="Path 130" d="M160.545,242.094a3.3,3.3,0,1,0-3.3-3.3A3.3,3.3,0,0,0,160.545,242.094Zm-1.943-3.818a.555.555,0,0,1,.786,0l.725.725,1.59-1.59a.556.556,0,1,1,.786.786l-1.983,1.983a.556.556,0,0,1-.786,0l-1.118-1.118a.555.555,0,0,1,0-.786Zm0,0" transform="translate(-151.354 -226.672)" fill="#f78739"/>
  <path id="Path_131" data-name="Path 131" d="M0,175.947a1.8,1.8,0,0,0,1.8,1.8H16.585a1.8,1.8,0,0,0,1.8-1.8V164.731H0Zm9.191-9.675a4.41,4.41,0,1,1-4.41,4.41A4.415,4.415,0,0,1,9.191,166.271Zm0,0" transform="translate(0 -158.559)" fill="#f78739"/>
  <path id="Path_132" data-name="Path 132" d="M18.386,44.961V43.25a1.8,1.8,0,0,0-1.8-1.8H15.576v1a.556.556,0,0,1-1.111,0v-1H13.373v1a.556.556,0,0,1-1.111,0v-1H6.128v1a.556.556,0,0,1-1.111,0v-1H3.925v1a.556.556,0,0,1-1.111,0v-1H1.8A1.8,1.8,0,0,0,0,43.25v1.711Zm0,0" transform="translate(-0.004 -39.9)" fill="#f78739"/>
  <path id="Path_133" data-name="Path 133" d="M387.053.555a.556.556,0,0,0-1.111,0v1h1.111Zm0,0" transform="translate(-371.48)" fill="#f78739"/>
  <path id="Path_134" data-name="Path 134" d="M328.26.555a.556.556,0,0,0-1.111,0v1h1.111Zm0,0" transform="translate(-314.89)" fill="#f78739"/>
  <path id="Path_135" data-name="Path 135" d="M134.9.555a.556.556,0,0,0-1.111,0v1H134.9Zm0,0" transform="translate(-128.773)" fill="#f78739"/>
  <path id="Path_136" data-name="Path 136" d="M76.107.555A.556.556,0,0,0,75,.555v1h1.111Zm0,0" transform="translate(-72.186)" fill="#f78739"/>
</svg>
