<svg xmlns="http://www.w3.org/2000/svg" width="19.104" height="18.862" viewBox="0 0 19.104 18.862"><g transform="translate(22460.195 -92)"><path d="M7.975,17.861a9.134,9.134,0,0,1-5.508-1.823l-.016-.013a12.128,12.128,0,0,1-.915-.8A7.6,7.6,0,0,1,.6,14.176a7.872,7.872,0,0,1-.547-.81.437.437,0,0,1-.02-.385A5.023,5.023,0,0,1,.5,12.13a5.718,5.718,0,0,1,3.99-2.511.672.672,0,0,1,.129-.013.778.778,0,0,1,.458.154,4.942,4.942,0,0,0,5.833,0,.811.811,0,0,1,.485-.147.951.951,0,0,1,.1.005,5.707,5.707,0,0,1,2.893,1.293l-5.214,5.2L9,17.806A9.472,9.472,0,0,1,7.975,17.861Zm.077-3.5a.433.433,0,0,0-.432.433v.553a.432.432,0,1,0,.865,0v-.553A.433.433,0,0,0,8.052,14.359Zm0-2.128a.433.433,0,0,0-.432.433v.554a.432.432,0,0,0,.865,0v-.554A.433.433,0,0,0,8.052,12.231ZM8,9.274a4.637,4.637,0,1,1,4.638-4.637A4.642,4.642,0,0,1,8,9.274Z" transform="translate(-22460.195 92)" fill="#f78739"/><path d="M2487.465,445.167H2485l.243-2.292,5.45-5.437,2.244,2.216Zm5.788-5.832h0l-2.242-2.214,1.124-1.121,2.292,2.153-1.174,1.182Z" transform="translate(-24935.52 -334.305)" fill="#f78739"/></g></svg>