<svg xmlns="http://www.w3.org/2000/svg" width="24.492" height="21.062" viewBox="0 0 24.492 21.062"><g transform="translate(22478.627 24.146)"><path d="M11.008,4.318l-.985-.2a4.629,4.629,0,0,0-.212-.515l.556-.834a.33.33,0,0,0-.041-.417L8.919.947A.33.33,0,0,0,8.5.906l-.834.556a4.629,4.629,0,0,0-.515-.212l-.2-.985A.33.33,0,0,0,6.632,0H4.642a.33.33,0,0,0-.324.266l-.2.985a4.636,4.636,0,0,0-.515.212L2.771.906a.33.33,0,0,0-.417.041L.947,2.354a.33.33,0,0,0-.041.417l.556.834a4.638,4.638,0,0,0-.212.515l-.985.2A.33.33,0,0,0,0,4.642v1.99a.33.33,0,0,0,.265.324l.985.2a4.63,4.63,0,0,0,.212.515L.906,8.5a.33.33,0,0,0,.041.417l1.407,1.407a.33.33,0,0,0,.417.041l.834-.556a4.635,4.635,0,0,0,.515.212l.2.985a.33.33,0,0,0,.324.266h1.99a.33.33,0,0,0,.324-.266l.2-.985a4.636,4.636,0,0,0,.515-.212l.834.556a.33.33,0,0,0,.417-.041l1.407-1.407a.33.33,0,0,0,.041-.417l-.556-.834a4.629,4.629,0,0,0,.212-.515l.985-.2a.33.33,0,0,0,.266-.324V4.642A.33.33,0,0,0,11.008,4.318ZM5.637,8.939a3.3,3.3,0,1,1,3.3-3.3A3.306,3.306,0,0,1,5.637,8.939Z" transform="translate(-22465.408 -15.106)" fill="#f78739"/><path d="M9.4,21.062a10.77,10.77,0,0,1-6.5-2.149L2.893,18.9a14.094,14.094,0,0,1-1.084-.942,8.938,8.938,0,0,1-1.1-1.242,9.129,9.129,0,0,1-.644-.955.505.505,0,0,1-.024-.454,5.833,5.833,0,0,1,.549-1,6.748,6.748,0,0,1,4.7-2.962.736.736,0,0,1,.151-.014.928.928,0,0,1,.542.182,5.828,5.828,0,0,0,6.877,0,.915.915,0,0,1,.451-.166l.629.944a5.291,5.291,0,0,0-.249.606l-1.159.232a.389.389,0,0,0-.312.381v2.341a.391.391,0,0,0,.312.382l1.159.231a5.24,5.24,0,0,0,.249.607l-.655.982a.389.389,0,0,0,.049.49l1.227,1.227A10.723,10.723,0,0,1,9.4,21.062Zm-.747-7.981.482.772-1.5,3.928,1.814,1.876,1.764-1.876L9.691,13.853l.009-.01c.183-.206.6-.7.555-.8-.005-.013-.018-.02-.039-.02a.455.455,0,0,0-.174.062,1.377,1.377,0,0,1-.644.148,2.045,2.045,0,0,1-.743-.148Zm.77-2.144A5.468,5.468,0,1,1,14.9,5.468,5.475,5.475,0,0,1,9.427,10.937Z" transform="translate(-22478.627 -24.146)" fill="#f78739"/></g></svg>